<svg t="1774493888664" class="icon" viewBox="0 0 1323 1024" version="1.1" xmlns="http://www.w3.org/2000/svg" p-id="923" width="200" height="200"><path d="M928.782073 592.125858c-28.054932-6.552977-154.609297-35.324641-199.046671-54.57401-34.403128-18.225467-30.717079-66.656061-30.717079-66.656061h438.537495L1012.639698 250.551942H788.916974a143.346368 143.346368 0 0 1-93.5847 73.311428V165.670414a56.724206 56.724206 0 0 1 56.621815-56.621815h22.218687V16.180631A16.177662 16.177662 0 0 0 757.687944 0.002969H565.09186a16.177662 16.177662 0 0 0-16.177662 16.177662v92.970358h20.478053a56.724206 56.724206 0 0 1 56.621815 56.621816v157.681004a143.858319 143.858319 0 0 1-91.536895-72.799477H310.447276L185.121595 470.998178h438.537495s3.99322 48.532985-30.717079 66.656061c-44.437374 19.146979-170.991739 48.021033-199.04667 54.57401s-51.195131 8.088831-51.195132 22.218687v28.259712h637.584166V614.344545c0-14.129856-23.44737-15.7681-51.502302-22.218687z" fill="#D93E39" p-id="924"></path><path d="M94.506212 829.364097a35.22225 35.22225 0 0 0-32.355323 24.266492C56.621815 865.40547 0 1022.984084 0 1022.984084h48.021033l12.594003-34.812689h83.857625l13.105953 35.32464h53.038156L137.919684 829.364097zM69.727769 954.792169l30.717079-83.345674h5.529074l26.314297 83.345674zM405.56783 829.671268l-44.949325-0.511951 2.559757 115.189045-3.174098 0.307171-79.659625-114.984265h-44.539764v194.029548h41.468056l-0.511951-115.700997 80.785917 115.700997h48.021033V829.671268zM584.75079 1014.383302c10.239026-6.860148 16.280052-41.672837 6.552977-65.939329s-71.673184-44.744545-95.734896-58.874401-5.529074-19.249369 3.78844-19.24937h73.004257c23.754541 0 26.314298-40.956105 26.314298-40.956105s-83.652845 0-108.840849-0.716732c-23.24259 0.716732-39.11308 4.709952-48.225814 17.713516A57.645718 57.645718 0 0 0 440.27813 900.013378c13.105954 26.416688 100.854409 55.597913 109.659971 70.751672 2.252586 6.348196 2.457366 14.129856 0 15.358539s-108.328898 0-108.328898 0V1023.905596s58.055279-0.716732 94.506212 0 38.191568-2.662147 48.635375-9.522294zM798.644049 866.429372V829.364097H637.072214c-7.064928 0-20.478053 22.013906-20.478052 37.679617h72.287525v156.657102h42.389569V866.429372zM982.946522 987.147492H873.696111l-0.716731-46.485179H952.229443c11.160539 0 20.478053-21.194784 20.478053-31.331421h-99.216165v-43.413471h84.881528c11.160539 0 18.225467-23.856931 19.146979-36.655714H835.094982v194.541499h130.342805c11.058148 0.10239 17.508735-36.655714 17.508735-36.655714zM1159.774505 987.147492h-108.943239l-0.716732-46.485179h79.352454c11.160539 0 20.478053-21.194784 20.478052-31.331421h-99.011384v-43.413471h84.881528c11.160539 0 18.225467-23.856931 19.146979-36.655714H1012.230137v194.541499h130.342804c11.160539 0.10239 17.201564-36.655714 17.201564-36.655714zM1323.086974 987.147492h-86.929333V829.364097h-43.413471v193.619987h110.171923c14.129856 0 20.170882-35.836592 20.170881-35.836592z" fill="#44465F" p-id="925"></path></svg>